<svg width="40" height="40" viewBox="0 0 40 40" fill="none"
  xmlns="http://www.w3.org/2000/svg" class="w-10 h-10">
  <rect width="40" height="40" rx="10" fill="#FF2442"></rect>
  <path d="M34.9317 14.9202C34.3418 14.9202 33.8636 15.402 33.8636 15.9964V17.008C33.8636 17.0436 33.8923 17.0725 33.9277 17.0725H34.9319C35.5218 17.0725 36 16.5907 36 15.9964C36 15.402 35.5215 14.9202 34.9317 14.9202Z" fill="white"></path>
  <path d="M35.5121 19.8292C35.4903 19.8027 35.4679 19.7765 35.445 19.7509C35.0541 19.3178 34.4905 19.0455 33.8636 19.0455H33.521V17.0724C33.521 15.8835 32.5646 14.9198 31.3846 14.9198H30.0494C30.0141 14.9198 29.9853 14.8908 29.9853 14.8552V14.2667C29.9853 14.2311 29.9566 14.2021 29.9212 14.2021H27.913C27.8777 14.2021 27.8489 14.2311 27.8489 14.2667V14.8552C27.8489 14.8908 27.8202 14.9198 27.7848 14.9198H26.5137C26.4783 14.9198 26.4496 14.9487 26.4496 14.9844V17.0079C26.4496 17.0435 26.4783 17.0724 26.5137 17.0724H27.7848C27.8202 17.0724 27.8489 17.1014 27.8489 17.137V18.9812C27.8489 19.0169 27.8202 19.0458 27.7848 19.0458H25.7998C25.7645 19.0458 25.7357 19.0748 25.7357 19.1104V21.1339C25.7357 21.1695 25.7645 21.1985 25.7998 21.1985H27.7848C27.8202 21.1985 27.8489 21.2274 27.8489 21.263V25.6081C27.8489 25.6438 27.8777 25.6727 27.913 25.6727H29.9212C29.9566 25.6727 29.9853 25.6438 29.9853 25.6081V21.263C29.9853 21.2274 30.0141 21.1985 30.0494 21.1985H33.3296C33.6244 21.1985 33.8633 21.4393 33.8633 21.7363V23.387C33.8633 23.5652 33.72 23.7097 33.5431 23.7097H31.483C31.4366 23.7097 31.4056 23.7578 31.4244 23.8004L32.2347 25.634C32.2449 25.6574 32.2679 25.6725 32.2933 25.6725H33.8633H34.0518C35.1276 25.6725 35.9998 24.7936 35.9998 23.7097V21.1982C35.9998 20.7525 35.8652 20.3383 35.6348 19.9945C35.5967 19.9374 35.5555 19.8823 35.5121 19.8292ZM31.3205 19.0458H30.0494C30.0141 19.0458 29.9853 19.0169 29.9853 18.9812V17.137C29.9853 17.1014 30.0141 17.0724 30.0494 17.0724H31.0644C31.2413 17.0724 31.3846 17.2169 31.3846 17.3951V18.981C31.3846 19.0169 31.3559 19.0458 31.3205 19.0458Z" fill="white"></path>
  <path d="M18.4697 23.5194H16.1228C15.8233 23.5194 15.5379 23.4601 15.2769 23.3532C15.2448 23.3402 15.2084 23.3544 15.1943 23.3861L14.2903 25.4318C14.2748 25.4669 14.2928 25.5087 14.3293 25.5201C14.6417 25.6184 14.9738 25.6718 15.3183 25.6718H17.5757C17.6011 25.6718 17.6241 25.6568 17.6343 25.6334L18.5283 23.6099C18.5474 23.5676 18.5161 23.5194 18.4697 23.5194Z" fill="white"></path>
  <path d="M25.8067 23.5197H23.843C23.8076 23.5197 23.7789 23.4907 23.7789 23.4551V17.1369C23.7789 17.1013 23.8076 17.0723 23.843 17.0723H25.0876C25.1229 17.0723 25.1517 17.0434 25.1517 17.0077V14.9843C25.1517 14.9486 25.1229 14.9197 25.0876 14.9197H23.7576H21.6212H20.3393C20.3039 14.9197 20.2752 14.9486 20.2752 14.9843V17.0077C20.2752 17.0434 20.3039 17.0723 20.3393 17.0723H21.5358C21.5712 17.0723 21.5999 17.1013 21.5999 17.1369V23.4551C21.5999 23.4907 21.5712 23.5197 21.5358 23.5197H19.7265C19.7011 23.5197 19.6782 23.5347 19.668 23.5581L18.774 25.5816C18.7552 25.6242 18.7861 25.6723 18.8325 25.6723H25.8067C25.8421 25.6723 25.8708 25.6434 25.8708 25.6078V23.5843C25.8708 23.5486 25.8421 23.5197 25.8067 23.5197Z" fill="white"></path>
  <path d="M14.0858 21.3453H14.0864L13.7626 17.1318C13.7601 17.0982 13.7322 17.0723 13.6988 17.0723H11.6825C11.6452 17.0723 11.6157 17.1043 11.6187 17.1419L11.9519 21.4792H11.9527C12.045 22.6458 12.4542 23.7223 13.0929 24.6223C13.1216 24.6626 13.1838 24.6559 13.2037 24.6103L14.2502 22.2419C14.2563 22.228 14.2574 22.2121 14.2527 22.1974C14.169 21.9243 14.1121 21.6392 14.0858 21.3453Z" fill="white"></path>
  <path d="M18.7812 22.5945L19.5959 20.7503C19.6147 20.7077 19.5837 20.6595 19.5373 20.6595H18.3789C18.2242 20.6595 18.1209 20.4992 18.1839 20.3569L19.5959 17.1629C19.6147 17.1203 19.5837 17.0722 19.5373 17.0722H17.8786C17.7239 17.0722 17.6205 16.9118 17.6835 16.7696L18.7778 14.2929C18.7966 14.2503 18.7657 14.2021 18.7193 14.2021H16.6948C16.6693 14.2021 16.6464 14.2172 16.6362 14.2406L14.9142 18.1375C14.7255 18.5642 15.0357 19.0455 15.4993 19.0455H16.6776L15.4938 21.7249C15.3051 22.1516 15.6151 22.6326 16.0789 22.6329L18.7223 22.6335C18.7477 22.6329 18.7707 22.6179 18.7812 22.5945Z" fill="white"></path>
  <path d="M6.57101 17.0723H4.55147C4.51804 17.0723 4.49013 17.0982 4.48765 17.1318L4.17297 21.2838C4.17297 21.2843 4.17187 21.2849 4.17187 21.2854C4.14811 21.5958 4.09065 21.8964 4.00279 22.184C3.99837 22.1988 3.9992 22.2144 4.00528 22.2285L5.05842 24.612C5.07859 24.6576 5.14075 24.6643 5.16949 24.6237C5.85409 23.6569 6.27485 22.4874 6.32541 21.222L6.63455 17.1419C6.63787 17.1043 6.60831 17.0723 6.57101 17.0723Z" fill="white"></path>
  <path d="M10.1515 14.2021H8.10048C8.06512 14.2021 8.03639 14.2311 8.03639 14.2667V23.4942C8.03639 23.6131 7.9408 23.7094 7.82283 23.7094H6.60281C6.5564 23.7094 6.52546 23.7575 6.54425 23.8001L7.35455 25.6338C7.36477 25.6571 7.3877 25.6722 7.41312 25.6722H8.26763H8.2679C9.34343 25.6722 10.2153 24.7936 10.2153 23.7099V14.2667C10.2156 14.2311 10.1869 14.2021 10.1515 14.2021Z" fill="white"></path>
</svg>